<?xml version="1.0" standalone="no"?>
<!DOCTYPE svg PUBLIC "-//W3C//DTD SVG 20010904//EN"
 "http://www.w3.org/TR/2001/REC-SVG-20010904/DTD/svg10.dtd">
<svg version="1.0" xmlns="http://www.w3.org/2000/svg"
 width="260.000000pt" height="260.000000pt" viewBox="0 0 260.000000 260.000000"
 preserveAspectRatio="xMidYMid meet">
<metadata>
Created by potrace 1.11, written by Peter Selinger 2001-2013
</metadata>
<g transform="translate(0.000000,260.000000) scale(0.100000,-0.100000)"
fill="#000000" stroke="none">
<path d="M1105 2584 c-282 -47 -513 -164 -712 -358 -203 -199 -326 -436 -377
-729 -18 -108 -14 -336 9 -442 60 -283 165 -477 364 -675 245 -243 537 -368
881 -375 400 -9 761 151 1013 448 220 259 320 542 312 882 -6 274 -98 537
-260 750 -83 110 -242 254 -355 323 -125 75 -313 146 -460 173 -88 16 -329 18
-415 3z m319 -428 c215 -26 458 -175 585 -360 152 -221 196 -512 115 -760
-165 -504 -737 -745 -1209 -509 -173 86 -307 223 -394 400 -175 358 -73 799
242 1049 191 151 407 209 661 180z"/>
</g>
</svg>
